/* XPM */
static char *_b5fa30b49a04207da00009fe0a290d929OU7y0ce7xwDsFY[] = {
/* columns rows colors chars-per-pixel */
"64 64 201 2 ",
"   c None",
".  c #0F0F01",
"X  c #1D1C00",
"o  c #141300",
"O  c #39381C",
"+  c #1D2B2B",
"@  c #2B2B2B",
"#  c #26262D",
"$  c #253434",
"%  c #253636",
"&  c #363636",
"*  c #3C3434",
"=  c #313F3F",
"-  c #3A3A3A",
";  c #3A3921",
":  c #2A5327",
">  c #5C5600",
",  c #575300",
"<  c #434012",
"1  c #535114",
"2  c #4B480A",
"3  c #625B05",
"4  c #7E6600",
"5  c #4C4A20",
"6  c #61622D",
"7  c #636437",
"8  c #005656",
"9  c #005A5A",
"0  c #1D5353",
"q  c #145D5D",
"w  c #185959",
"e  c #2C4343",
"r  c #254C4C",
"t  c #334444",
"y  c #3B4A4A",
"u  c #384747",
"i  c #365F5F",
"p  c #00665E",
"a  c #006464",
"s  c #0E6565",
"d  c #006B6B",
"f  c #096C6C",
"g  c #186A6A",
"h  c #116363",
"j  c #00736C",
"k  c #007474",
"l  c #007B7B",
"z  c #0D7D7D",
"x  c #007877",
"c  c #1A7575",
"v  c #386868",
"b  c #277878",
"n  c #3E7A7A",
"m  c #256868",
"M  c #474747",
"N  c #424B4B",
"B  c #4A4C4E",
"V  c #574F4F",
"C  c #584E4E",
"Z  c #455B5B",
"A  c #4E5A5A",
"S  c #4E5656",
"D  c #545353",
"F  c #595151",
"G  c #5B5B5B",
"H  c #575759",
"J  c #5E5E60",
"K  c #5B5C6A",
"L  c #466B6B",
"P  c #646464",
"I  c #62626C",
"U  c #6A6A6B",
"Y  c #616D6D",
"T  c #737373",
"R  c #7B7B7B",
"E  c #687075",
"W  c #ABA200",
"Q  c #B5A600",
"!  c #9C982E",
"~  c #A5A031",
"^  c #B1AD3F",
"/  c #C8AD00",
"(  c #CDBE00",
")  c #C5BA07",
"_  c #D0C80C",
"`  c #E0CF00",
"'  c #EAD900",
"]  c #FFF700",
"[  c #008585",
"{  c #0D8383",
"}  c #008B8B",
"|  c #0D8989",
" . c #148686",
".. c #009494",
"X. c #0A9494",
"o. c #009A9A",
"O. c #0C9C9C",
"+. c #139E9E",
"@. c #199D9D",
"#. c #169494",
"$. c #258080",
"%. c #358484",
"&. c #299898",
"*. c #01A4A4",
"=. c #0BA5A5",
"-. c #07ABAB",
";. c #0DAAAA",
":. c #13A3A3",
">. c #1AA4A4",
",. c #14ACAC",
"<. c #1DAEAE",
"1. c #1BADAD",
"2. c #1FAAA5",
"3. c #09B1B1",
"4. c #13B1B1",
"5. c #1FB0B0",
"6. c #1FB3B3",
"7. c #1FB4B4",
"8. c #1EB2B2",
"9. c #1EB9B9",
"0. c #1EB6BD",
"q. c #29A4A4",
"w. c #23ACAC",
"e. c #2AACAC",
"r. c #21A7A7",
"t. c #38A6A6",
"y. c #22B2B2",
"u. c #21B5B5",
"i. c #22B3B3",
"p. c #29B5B5",
"a. c #23B9B9",
"s. c #2DB9B9",
"d. c #32B7B7",
"f. c #3CB2B2",
"g. c #33BABA",
"h. c #3CBDBD",
"j. c #3BBBB1",
"k. c #4BB09D",
"l. c #42A9A9",
"z. c #56ADAD",
"x. c #4BB5AE",
"c. c #43BFBF",
"v. c #42BEBE",
"b. c #4BB9B9",
"n. c #5CBCBC",
"m. c #54BCBC",
"M. c #6CBAB7",
"N. c #74BCB5",
"B. c #53C3B2",
"V. c #7EC1BA",
"C. c #37BAC5",
"Z. c #37BAC5",
"A. c #2DB9C8",
"S. c #48BCC9",
"D. c #27C0C0",
"F. c #34C2C2",
"G. c #43C1C1",
"H. c #4CC2C2",
"J. c #4CCACA",
"K. c #50C5C5",
"L. c #5FC6C6",
"P. c #5AC8C8",
"I. c #51C8C8",
"U. c #64C3C3",
"Y. c #6CC6C6",
"T. c #64CBCB",
"R. c #68C8C8",
"E. c #74CACA",
"W. c #76C2C2",
"Q. c #6DD0D0",
"!. c #63D1D1",
"~. c #73D1D1",
"^. c #7CD2D2",
"/. c #8C8C8C",
"(. c #859999",
"). c #959595",
"_. c #96AAAA",
"`. c #9BACAC",
"'. c #A2A2A2",
"]. c #A5B6B6",
"[. c #ABBDBD",
"{. c #B7BFBF",
"}. c #C6BEBE",
"|. c #80CDCD",
" X c #86D5D5",
".X c #8BD4D4",
"XX c #8DD9D9",
"oX c #93D6D6",
"OX c #94DBDB",
"+X c #9BDBDB",
"@X c #9ED6D6",
"#X c #A5DDDD",
"$X c #A0D7D7",
"%X c #98E0E0",
"&X c #A5E3E3",
"*X c #ACE3E3",
"=X c #A8E9E9",
"-X c #B3E6E6",
";X c #BBE9E9",
":X c #D1CBCB",
">X c #C5F0F0",
/* pixels */
"                                                                                                                      * * * * & ",
"                                                                                                      * * * * & - t r 0 w s k = ",
"                                                                                      * * * * * - e r 0 q s f x x [ [ [ } [ [ = ",
"                                                                      * * * * & = e r 0 h f d x l [ x O.[ [ } } d @.X...} o.[ = ",
"                                                      * * * * & = e 0 w h f x l l [ [ [ k 1.} ..X.X.a { ,.1.<.<.9 d ,...} o.[ = ",
"                                      * * * * & = r 0 q s f x x x X.[ [ } [ d >.X.:.r.:.8 a K.H.u.8.d l a.y.y.>.k l l l ..X.[ = ",
"                                - r 0 q f k l l l [ k >...} ....a  .>.,.5.2.9 d D.I.OX1.k [ c.q.#.{ a a f 9 8 8 9 9 9 d o...[ t ",
"                                = o...[ d 2...O.:.+.9 a u.i.i.5.a l u.i.5.>.k x  .$.b a 9 8 8 8 9 9 a a a d k k x x d k } OXl = ",
"                                t 0.1.1.8 a a.u.u.5.k } 2.@.| z a a 9 9 8 8 8 a 9 a a d d k x x x l [ [ } } } } ....d k k &.[ t ",
"                                t 9.5.1.k k z f a 9 8 8 8 9 9 a a d d k x x x l [ [ } } ..X.X.O.=.:.1.*.*.*.*.o.o.} a a k [ [ = ",
"                                t a.5.w.l a a a d k k l l l [ [ } } ..X.X.=.=.,.1.p.c.p.Z.G.9.u.i.5.4.*.*.*.o.o.o...a k o.o.[ = ",
"                                t ;.T.y.b.} } ........o.o.*.*.*.*.*.i.8.u.u.y.7.B.g.7.S.g.u.6.6.5.5.*.*.*.o.*.....} d x *.*.[ = ",
"                                e l t.g.XX-.*.*.*.*.*.*.*.*.*.*.,.y.<.y.6.u.s.c.9.s.B.9.s.6.6.5.i.*.,.*.*.*.o...[ ..d k *.1.[ = ",
"                                = l [ g.#X;.*.*.*.*.*.*.*.*.*.y.5.5.6.u.7.h.g.u.S.g.a.h.7.6.5.8.=.<.*.*.o.o.o.} } } d x *.<.[ = ",
"                                t *.5.d.#X;.*.*.*.*.*.*.*.,.y.5.5.6.6.s.h.u.g.G.7.g.h.7.7.6.5.,.1.*.*.o.*...o...} ..d l 4.,.[ = ",
"                                t 7.8.d.#X;.*.*.*.*.*.8.5.5.8.6.6.7.Z.g.p.G.g.p.h.g.u.7.7.<.5.;.-.*.*.*.o.o...} } } d x } &Xl = ",
"                                t 9.y.d.#X;.*.*.*.*.i.<.y.5.6.7.7.h.p.g.Z.0.g.h.s.p.7.7.6.y.*.,.*.*.o.o.o...} } [ ..d d k #.[ = ",
"                                t a.,.d.#X;.*.*.<.5.y.y.6.6.4.7.g.u.c.g.p.B.g.s.g.6.6.5.<.6.8.*.*.*.o.o.....} } [ } d a k } [ = ",
"                                t o.#Xp.#X=.-.y.<.y.6.6.6.8.h.0.g.B.u.g.h.s.g.h.7.7.y.6.6.5.*.*.*.*.o.o...} } } } } d l o.1.[ = ",
"                                e x l g.#Xp.y.<.<.6.6.7.7.g.u.B.s.0.c.g.a.h.g.7.7.7.y.y.y.*.*.*.*.o.*.......} [ } ..a l 4.1.[ = ",
"                                = [ } g.#Xp.w.y.6.7.7.6.i.g.Z.0.s.Z.s.g.g.g.p.7.7.6.<.5.,.*.*.*.o.*.......[ } [ } } d x 5.1.[ = ",
"                                t 3.i.d.#Xp.6.6.7.7.7.6.B.g.a.B.g.s.h.g.g.g.s.u.6.6.y.<.*.*.*.o.*.......} } [ ..} ..d { 5.1.[ = ",
"                                t 9.<.d.#Xp.7.6.u.i.7.G.9.s.h.p.g.g.g.g.p.h.y.6.7.y.5.*.,.*.*.o.o.o...} } } } } } } d { i.,.[ = ",
"                                t 7.6.d.#Xp.7.7.u.c.g.p.Z.g.g.g.g.g.s.g.c.u.6.7.5.y.*.<.*.*.*.o...o...} } [ } } ....d l [ *Xl = ",
"                                u 9.6.d.#Xp.7.u.S.p.g.g.A.g.s.h.g.p.S.d.a.7.6.5.6.;.1.*.*.*.*.........} [ } } } } } a d k | } = ",
"                                e } @Xp.#Xp.7.g.s.g.g.h.s.s.h.p.A.B.i.g.7.5.6.5.1.,.*.*.*.*.o.........[ } } } } ..} d a x } [ = ",
"                                = x x g.#Xu.g.g.d.h.g.a.B.s.9.B.s.p.B.4.y.i.5.5.*.;.*.*.*.*.........} [ [ } } ......a l *.*.[ = ",
"                                e ..+.d.%XB.p.g.v.a.g.h.7.g.Z.i.g.H.7.0.7.5.5.5.,.*.*.*.o.o.o.....} } [ } } } } ..} d { *.*.[ = ",
"                                t 4.6.d.#Xp.S.s.i.B.a.`.:X:X:X:X:X}.{.4.5.5.5.1.*.*.*.o.*.o.....} } [ } [ } } } ..} d l *.o.[ = ",
"                                t a.9.g.#XH.p.j.B.0.s.E G U T T /.'.[.8.5.5.1.*.*.*.*.*.o...o...} } } [ } } } o.....d l o.[ [ = ",
"                                u 9.7.g.#Xp.k./ ] A...+ P U T T /.).].,.5.5.;.*.*.o.*.o...o.....} [ [ } } } } } o.} a l ..x } = ",
"                                t 4.H.s.#Xf.p > ' A.} $ U J P T T R ].4.5.-.,.*.*.*.o.o.o.} ..} [ } } [ } } } ......d k x S.[ = ",
"                                = [ z.g.XX[ j > _ S.[ $ U Y K I E R `.7.-.<.*.*.*.*.o.o.....} } } [ [ } [ } ..} o...d d k l [ t ",
"                                = x l K.R.[ V., ' Z.[ $ G 7 Q _ ^ U `.-.<.*.*.*.*.o...o...} } } [ } } [ ..} } o.o.} d a x } [ = ",
"                                e *.g.E.f.[ N.> ( Z.[ % M 1 o X ~ U `.-.*.*.*.*.o.o.o.} ..} } } } [ [ } } } o.} o...d a x o.[ = ",
"                                y T.E.oX=.[ N.> ( Z.[ % & 1 . X ~ J `.-.*.*.*.o.*.o.} o...} } [ [ } } [ } ..} o.o.} a d } o.[ = ",
"                                y ^.+XoX=.[ M.> ( Z.[ % @ < O 5 ! J `.*.*.*.*.*...o.o.} ..} [ [ } [ } } } } ..o.o.} d d } *.[ = ",
"                                N =X*X&XO.[ l.> Q Z.[ % @ O 2 3 7 J _.*.*.*.o.o.o...} ..} [ } } [ } [ } } ..} o.o...d a } *.[ = ",
"                                N !.-X;X*.[ z.3 W C.[ % @ @ # # B J (.-.*.o.o.o.o...o.} [ } [ [ } [ } } ......o.o.} d k o.5.[ = ",
"                                t O.1.-X*.[ X.: 4 a.[ $ & - - M J J (.*.*.o.o.o.....} } } [ } } [ } } } } ..o...o...a k x XXl = ",
"                                t a.Y.*X=.[ x x 2.1.} % & M D G G P N...o.*.......} } } } [ } [ [ [ } } ......o.o.} d d k l [ = ",
"                                N OX-X.X*.[ [ :.i.1.[ % @ M H F U U z.X.*.o.......} ..[ [ [ [ } [ ..} } ....o.o.o...d a l ..[ = ",
"                                B >X&X^.=.} O.a.7.1.[ % $ @ @ @ @ @ P #.o.o.o.} ..} [ } [ } [ } } } } } } o.o...o.} d a o.*.[ = ",
"                                B =X XY.*.;.u.7.7.<.[ [ [ [ [ [ [ l o.X...o...o...} } [ } } [ [ [ } [ ......o...*...d k o.*.[ = ",
"                                B %XH.b.y.7.7.7.5.<.+.O.O.o.....} *.*...o.....} } } } } [ [ } } ..} ......o...o.*...d x *.1.l = ",
"                                e [ #XK.E.7.7.5.5.5.5.y.;.,.*.*.*.*.o.o.o.} ..} } [ } [ } } [ } } } } ....o.o.o.o...a x *.1.[ = ",
"                                : x x P.XXi.5.5.5.5.5.-.1.*.*.*.*.o.o.......} } } [ [ } [ [ } [ } } } ......o.o.*.} d l *.p.[ = ",
"                                t ..@.P.#Xp.5.5.5.5.;.1.-.;.*.*.o.o.......} } } [ } } [ } } [ } } } ....o.o.....*...a k l #X[ = ",
"                                u F.H.h.#Xp.5.5.y.1.;.*.5.*.*.o.o.o.} ......} [ } } [ } } [ } } } } ....o.o.o.o.*...d a k [ [ = ",
"                                u J.a.g.#Xi.5.5.,.;.;.<.*.*.o.*.o.o.......} } } [ [ } [ [ } } } } } ......o...*.o...d d l ..[ = ",
"                                t 9.9.g.#Xp.5.,.,.;.,.=.*.o.*.o.o.o.....} } } } } [ [ } [ [ } } } ........o.o.o.*.} d l *.5.[ = ",
"                                t 4.h.g.#Xp.<.;.-.,.;.,.*.o.o.o.o.} ..} } } [ [ [ } } [ [ ..} } } } ..o.o.o.o.o.*...d l *.5.[ = ",
"                                e l M.s.#Xp.y.;.1.*.;.*.*.o.o.......} } ..[ [ } [ [ } } [ } } ..} o.} o.o...o.*.*...d l *.1.[ = ",
"                                t x l Z.$Xf.p.1.-.5.*.*.......} } } } } [ } } [ } } [ [ } } } } o.} o.o.o.o.*.o.*...d l *.5.[ = ",
"                                t *.,.g.>X#X+XoX.X|.E.Y.U.n.b.f.t.q.O.X...} [ [ [ [ [ [ [ } [ ..} o...o...o.o.*.*...d l >.d.[ = ",
"                                t 9.w.w.h.h.P.E. XOX#X-X;X;X;X;X-X-X~.Q.G.s.4.*.*.*.;.e.r.>.+.X.O...o...o...o.o.*.o.d k l +Xl = ",
"                                t 9.7.1.} #X,.1.1.,.o.1.*.o.X.:.w.f.b.n.W.n.m.S.H.E.XX+XXX X^.Q.T.P.K.H.8.4.,.,.;.3.k a k l [ = ",
"                                y 9.7.,.k l u.w.<.1.x W.o.o.o.o.[ ,.X.} l l k l x [ X.@.e.f.m.U.E. XOX+X+XOXE.U.L.G.x k [ ..[ = ",
"                                D L n %.g z w.y.6.,.x [ o.o.o...8 d } [ [ x a [ x l } o.[ ,.....o.*.,.y.<.y.p.d.v.p.O.O.-.5.[ = ",
"                                      V F V V C F A Z Z b b  . .k } } [ [ l p 9 [ [ } ..9 x o.o.*.6.l $X,.y.6.1...^.5.i.5.5.[ = ",
"                                                          F F F F F D S Z i i m c z X...x } o.*.-.1.k x y.y.<.1.k l.<.5.5.1.[ = ",
"                                                                            D F F F F V D A Z v n %.g z w.w.6.1.x [ 0.7.6.1.[ = ",
"                                                                                                V F F F V D D A Z v n %.&.&.l N ",
"                                                                                                                  V F C C V F H "
};
