/* XPM */
static char *_16d5f7e03e849b98bc30c1fb35eba35EEqr955NDCBDOMoD[] = {
/* columns rows colors chars-per-pixel */
"64 64 65 1 ",
"  c None",
". c #373737",
"X c #494000",
"o c #005757",
"O c #006A6A",
"+ c #006F6F",
"@ c #007676",
"# c #007777",
"$ c #007B7B",
"% c #007D7D",
"& c #027D7D",
"* c #535353",
"= c #8C8A00",
"- c #8F8C00",
"; c #928F00",
": c #949200",
"> c #959200",
", c #979500",
"< c #ECDE00",
"1 c #028383",
"2 c #008484",
"3 c #028585",
"4 c #008787",
"5 c #008888",
"6 c #008B8B",
"7 c #028A8A",
"8 c #008C8C",
"9 c #008D8D",
"0 c #009191",
"q c #009292",
"w c #009696",
"e c #009797",
"r c #0F9595",
"t c #009898",
"y c #009D9D",
"u c #029C9C",
"i c #009E9E",
"p c #00A2A2",
"a c #00A3A3",
"s c #00A4A4",
"d c #01A5A5",
"f c #02A5A5",
"g c #0CA0A0",
"h c #0DA9A9",
"j c #0FAAAA",
"k c #11A2A2",
"l c #1AAEAE",
"z c #1CAFAF",
"x c #1FAFAF",
"c c #1FB0B0",
"v c #1FB1B1",
"b c #1CB3B3",
"n c #1FB2B2",
"m c #1FB3B3",
"M c #1EB4B4",
"N c #1FB4B4",
"B c #21B0B0",
"V c #22B4B4",
"C c #20B6B6",
"Z c #24B5B5",
"A c #33BABA",
"S c #35BBBB",
"D c #44BFBF",
"F c #73C8C8",
"G c #B8E8E8",
/* pixels */
"                                                             ...",
"                                                             ###",
"                                                             8k#",
"                                                             cr4",
"                                                             cg%",
"                                                             ooo",
"                                                             +++",
"                                                             888",
"                                                             sce",
"                                                             sSt",
"                                                             sAe",
"                                                             sA8",
"                                                             sA8",
"                                                             sA8",
"                                                             sA8",
"                                                             cA8",
"                                                             cS4",
"                                                             cc4",
"                                                             NN5",
"                                                             NN5",
"                                                             Nc8",
"                                                             Nc8",
"                                                             Zc8",
"                                                             Dz5",
"                                                             CB8",
"                                                             Dj5",
"                                                             CBe",
"                                                             Dj5",
"                                                             Cpe",
"                                                             <s8",
"                                                             ,pe",
"                                                             >s8",
"                                                             >se",
"                                                             >st",
"                                                             ;ue",
"                                                             ;ut",
"                                                             ;ut",
"                                                             -et",
"                                                             -tt",
"                                                             =tt",
"                                                             Xqt",
"                                                             5qe",
"                                                             Cqt",
"                                                             Nqe",
"                                                             Nqp",
"                                                             c5e",
"                                                             c8p",
"                                                             c8e",
"                                                             c4p",
"                                                             c5t",
"                                                             c4p",
"                                                             c5t",
"                                                             l5p",
"                                                             s5s",
"                                                             z5p",
"                                                             s5s",
"                                                             z5p",
"                                                             FsN",
"                                                             GDF",
"                                                             c$c",
"                                                             c8u",
"                                                             cO1",
"                                                             c%%",
"                                                             ***"
};
