/* XPM */
static char *_a8d9eeeff7e4533e72dfb4feddbc0fd1I4fswJk2hUacrlS[] = {
/* columns rows colors chars-per-pixel */
"64 64 163 2 ",
"   c None",
".  c black",
"X  c #000018",
"o  c #3B391E",
"O  c #262D2D",
"+  c #2B2E2D",
"@  c #322C2C",
"#  c #363520",
"$  c #283030",
"%  c #2F3F3F",
"&  c #263131",
"*  c #363636",
"=  c #3B3434",
"-  c #343A3A",
";  c #3E3E3E",
":  c #5A5709",
">  c #685800",
",  c #535337",
"<  c #004747",
"1  c #1F4040",
"2  c #005656",
"3  c #005B5B",
"4  c #1C5454",
"5  c #145D5D",
"6  c #2A4545",
"7  c #234D4D",
"8  c #3E5A5A",
"9  c #006464",
"0  c #0E6464",
"q  c #006C6C",
"w  c #0C6A6A",
"e  c #1C6868",
"r  c #007474",
"t  c #0B7272",
"y  c #007B7B",
"u  c #0C7C7C",
"i  c #1B7777",
"p  c #157878",
"a  c #256A6A",
"s  c #396363",
"d  c #3D7474",
"f  c #574F4F",
"g  c #584E4E",
"h  c #555252",
"j  c #595151",
"k  c gray35",
"l  c #5D5D6B",
"z  c #406060",
"x  c #4B6262",
"c  c #416E6E",
"v  c #4D7D7D",
"b  c #636364",
"n  c #6D6D6D",
"m  c #6E6E70",
"M  c #757575",
"N  c #7D7D7D",
"B  c #8F8D00",
"V  c #918F00",
"C  c #949100",
"Z  c #CDC502",
"A  c #E8DF02",
"S  c #007D83",
"D  c #008585",
"F  c #0B8383",
"G  c #008B8B",
"H  c #0B8B8B",
"J  c #178787",
"K  c #148C8C",
"L  c #1B8E8E",
"P  c #009494",
"I  c #099696",
"U  c #009A9A",
"Y  c #0B9C9C",
"T  c #159797",
"R  c #119E9E",
"E  c #189D9D",
"W  c #258F8F",
"Q  c #388484",
"!  c #259191",
"~  c #2C9494",
"^  c #349898",
"/  c #01A4A4",
"(  c #0AA4A5",
")  c #0DA9A9",
"_  c #13A6A6",
"`  c #18A4AF",
"'  c #14ABAB",
"]  c #1CAEAE",
"[  c #11A5AD",
"{  c #0BA8B6",
"}  c #17A3B0",
"|  c #19A5B0",
" . c #16B4B4",
".. c #1EB2B2",
"X. c #22ADAD",
"o. c #2AAAAA",
"O. c #32AAAA",
"+. c #20A4B1",
"@. c #22B3B3",
"#. c #2AB6B6",
"$. c #24B9B9",
"%. c #2DB8B8",
"&. c #31B3B3",
"*. c #3DB5B5",
"=. c #33BABA",
"-. c #3BBCBC",
";. c #479C9C",
":. c #5C9C9C",
">. c #619E9E",
",. c #42A8A8",
"<. c #53AFAF",
"1. c #43BFBF",
"2. c #5DB9B9",
"3. c #64A0A0",
"4. c #6FACAC",
"5. c #77A8A8",
"6. c #78AFAF",
"7. c #77B7B7",
"8. c #7BB0B0",
"9. c #79B9B9",
"0. c #20B5C6",
"q. c #28B7C6",
"w. c #3DBFC3",
"e. c #3CC1C8",
"r. c #46C0C0",
"t. c #4AC2C2",
"y. c #56C2C2",
"u. c #59C6C6",
"i. c #6CC6C6",
"p. c #64C5C9",
"a. c #63CACA",
"s. c #6ECBCB",
"d. c #67C4C4",
"f. c #75CDCD",
"g. c #6FD0D0",
"h. c #7BD4D4",
"j. c #868C8C",
"k. c #989898",
"l. c #81B5B5",
"z. c #89B8B8",
"x. c #91B6B6",
"c. c #A5BDBD",
"v. c #84CDCD",
"b. c #85D7D7",
"n. c #8DD5D5",
"m. c #85D5DA",
"M. c #95D7D7",
"N. c #9FD0D0",
"B. c #9BDCDC",
"V. c #94DBDB",
"C. c #A6CFCF",
"Z. c #B1CECE",
"A. c #A3DDDD",
"S. c #AADFDF",
"D. c #9CE0E0",
"F. c #A7E1E1",
"G. c #ACE1E1",
"H. c #B4E5E5",
"J. c #B9E7E7",
"K. c #B3E9E9",
"L. c #B8E8E8",
"P. c gray77",
"I. c #C4ECEC",
/* pixels */
"                                                                                                                            = = ",
"                                                                                                                      = = - 7 0 ",
"                                                                                                                  = - 6 w y D 0 ",
"                                                                                                            = * 6 0 y y ' G P 0 ",
"                                                                                                      = * - 5 r y D P y F G U 0 ",
"                                                                                                = = - 4 r G D P 2 ] @.D G G U 0 ",
"                                                                                            = - 7 q D D G u 1.@.9 @.E 9 3 r P 0 ",
"                                                                                      = * 6 w y G r _ *.' q t.T 9 2 2 9 q r f.0 ",
"                                                                                * = - 0 y D q Y ] r Y i.H 9 2 3 9 r y D D r <.0 ",
"                                                                            = - 5 y y ] Y ] < $.X.q 9 2 3 q r y D G U P G q D 0 ",
"                                                                          7 r r P Y I q @.@.q 3 2 3 q y y G I _ @./ / U G q U 0 ",
"                                                                          W ( 3 ] @.H q 3 2 q r y D P Y ..-.@.../ / U U D y / 0 ",
"                                                                          W @.r t 2 3 q r y G I _ @.$.-.r.$.@.@./ / U P G y ' 0 ",
"                                                                          W @.D r r D P U / / @.@.@.-.@.@.....' / / U G D y @.0 ",
"                                                                          W h.s.P U / / / / ......-.=.r.-.....( / U P G D D ' 0 ",
"                                                                          t H B./ / / / / ] ....$.=.=.@.....@. ./ U U G G D D.0 ",
"                                                                          0 I H./ / / / ) ..@.=.=.$.=.-...../ / U P P G G r ^ 0 ",
"                                                                          K ] G./ / / ] @.....=.-.r.=.@...@.../ U U G D G 9 D 0 ",
"                                                                          W @.G./ / ' @.....%.=.#.$.-. ...../ / U P G D G r ' 0 ",
"                                                                          W ' G./ ( ......$.%.%.1.-.@.@...../ / U P G G D D @.0 ",
"                                                                          J K.G.( ..] @...=.t.-.#.=......./ / U U U G G G D X.0 ",
"                                                                          w y G.........-.%...%.-.@.....@./ / U G G G G D H ] 0 ",
"                                                                          t _ F....... .%.-.-.=.-.1....._ / U U U G D G D K ' 0 ",
"                                                                          W @.F...$...t.-.%.-.-.$.......) / / U P G G G D D K.0 ",
"                                                                          W @.S.....q.%.=.%.@.$.1...@.) / / U P P G G G G r K 0 ",
"                                                                          ! ' S...%.=.%.%.-.t.-.@...X.] / / U P G D G G D 9 G 0 ",
"                                                                          u S.S.] %.=.1.-.%.@.=.....) / / U P P G G G P G y / 0 ",
"                                                                          0 D S.w.1.=.$.#.%.$.@.....@./ / / P P D G G G D K / 0 ",
"                                                                          J ] S.@.%.=.7.C.Z.Z.9...] ) / / U P G D D G P D D U 0 ",
"                                                                          W ..S.%.0.=.j.M >.k.z.] @./ / U U P G G G G P G D D 0 ",
"                                                                          W ..S.w.A #.O g M P.l.@.) / U U U P G D D G P D D y 0 ",
"                                                                          ! =.F.S B { @ b n M l.@._ / / P P G D G G G G G r 1.0 ",
"                                                                          t 2.V.D V +.O b l M 6.( / / U U P G G D D P P D q r 0 ",
"                                                                          0 G f.m.C } + , Z m 8.] / / U P P G D G G G U D q G 0 ",
"                                                                          L u.&.p.V | + o . b 4./ / / U G G G G D G P P D q U 0 ",
"                                                                          :.M.( p.C ` $ # X b 6./ / U P P P D D G G P U D q U 0 ",
"                                                                          3.A.( w.V ` $ # : b 5./ / U U P D G G D G P U D r / 0 ",
"                                                                          5.I./ e.V ` $ + + b >./ / P P P D D D G G P U G q / 0 ",
"                                                                          W %.( Y > [ $ + @ b >.U U U P G D D D G G P U D r @.0 ",
"                                                                          ^ M./ r F ( $ * k M >./ P P G G G G G G G P U D r M.0 ",
"                                                                          c.F.( D $.Y $ ; k M :.U P P G G G D D G P P U D q r 0 ",
"                                                                          x.V.) _ ..Y 6 $ + @ v / P P G D G G G G G U P D q G 0 ",
"                                                                          x.y._ @...I G G D y / U P P G G D D D G P U P G r / 0 ",
"                                                                          u K.a...X.@.' U U P U U G P G D D G G G P P / D r / 0 ",
"                                                                          0 D V.......] ] / / U U P G D D D D G U U U U D y @.0 ",
"                                                                          F O.S.] ..@.) / / U U P G G G G G G G G G U U D y ..0 ",
"                                                                          ;.t.S.] @.) / ) / / P P G D D D D D G P U U U D D -.0 ",
"                                                                          ~ ..F...] _ ../ U U G P G D G G G G G G U U U D r B.0 ",
"                                                                          ! ' S.../ ) ) / U P P G G G D D G G G P U P U D q y 0 ",
"                                                                          t S.S...] ) ) U U U P G G G D G D G P P P P / D r I 0 ",
"                                                                          0 D S.] ) _ / U U G G G D D G G D G G P U P U D D @.0 ",
"                                                                          L ] I.v.d.*.) P P I G D G G D D G G P G U U / D D ] 0 ",
"                                                                          W ..@.u.F.L.F.v.2.O.P G G D G G G G P P U P / D D ] 0 ",
"                                                                          ! X.D -.' ] ' f.H.K.g.%._ P D D D G P P U U / D D ] 0 ",
"                                                                          c X.r _ ..Y H.U P I *.v.s.=.=.t.&.E I U P U / D D u.0 ",
"                                                                            g h d o.I S U U 9 P y r H ,.M.B.b.u.1.) ( / U q v.0 ",
"                                                                                  j h s H / 2 G y r G y G U &.s.B.n.u.%.' 9 y 0 ",
"                                                                                        g h s p y q q D U T P / ' %.y.d.-.D I 0 ",
"                                                                                              j j 8 p G U 3 U ) y ] ] _ ..' @.0 ",
"                                                                                                    j j z i U  .q @...P G.@...0 ",
"                                                                                                          j h x e X...D G @.@.0 ",
"                                                                                                                j h x a H  . .0 ",
"                                                                                                                      j g x Q e ",
"                                                                                                                            g j "
};
