/* XPM */
static char *_dd0a1fefce841a19d560110d7f48f783i9wfd8VPsCgW42k[] = {
/* columns rows colors chars-per-pixel */
"64 64 187 2 ",
"   c None",
".  c black",
"X  c #3F3F00",
"o  c #101128",
"O  c #003F3F",
"+  c #2A2B2C",
"@  c #332C2C",
"#  c #2E2E33",
"$  c #263434",
"%  c #343434",
"&  c #3B3434",
"*  c #333C3C",
"=  c #3B3B3B",
"-  c #423D00",
";  c #464406",
":  c #514E09",
">  c #5E5A00",
",  c #66640C",
"<  c #004B4B",
"1  c #005454",
"2  c #005B5B",
"3  c #1D5353",
"4  c #165B5B",
"5  c #2D4343",
"6  c #254C4C",
"7  c #284848",
"8  c #235252",
"9  c #265959",
"0  c #2E5F5F",
"q  c #315B5B",
"w  c #0C685B",
"e  c #006464",
"r  c #0C6363",
"t  c #026C6C",
"y  c #096C6C",
"u  c #116161",
"i  c #007575",
"p  c #007A7A",
"a  c #0C7B7B",
"s  c #097272",
"d  c #147878",
"f  c #2F6060",
"g  c #296A6A",
"h  c #356363",
"j  c #3B6262",
"k  c #356E6E",
"l  c #297575",
"z  c #3C7B7B",
"x  c #4C4C4C",
"c  c #564E4E",
"v  c #584E4E",
"b  c #4B5A5A",
"n  c #495959",
"m  c #555454",
"M  c #5A5151",
"N  c #5A5A5A",
"B  c #68675D",
"V  c #5F5F60",
"C  c #4A6565",
"Z  c #516969",
"A  c #5B6F6F",
"S  c #417373",
"D  c #626262",
"F  c #6C6C6C",
"G  c #667373",
"H  c #737373",
"J  c #797979",
"K  c #787869",
"L  c #806500",
"P  c #847600",
"I  c #8B8B05",
"U  c #9A9400",
"Y  c #ADA100",
"T  c #B2A300",
"R  c #C8B900",
"E  c #CBC307",
"W  c #DDCB00",
"Q  c #D3C603",
"!  c #F9EC00",
"~  c #81D07E",
"^  c #008585",
"/  c #0B8383",
"(  c #008C8C",
")  c #0B8C8C",
"_  c #018788",
"`  c #158686",
"'  c #138A8A",
"]  c #188F8F",
"[  c #009494",
"{  c #0B9393",
"}  c #009A9A",
"|  c #0B9B9B",
" . c #139495",
".. c #1C9799",
"X. c #149D9D",
"o. c #1D9999",
"O. c #268989",
"+. c #328B8B",
"@. c #289D9D",
"#. c #339292",
"$. c #399E9E",
"%. c #01A4A4",
"&. c #0AA4A4",
"*. c #04A9A9",
"=. c #0CA9A9",
"-. c #12A4A4",
";. c #1AA4A3",
":. c #14ACAC",
">. c #1AADAD",
",. c #1EAEAE",
"<. c #1AADAD",
"1. c #1BA7B5",
"2. c #1EA9B5",
"3. c #12A8B1",
"4. c #16B1B1",
"5. c #1FB1B1",
"6. c #1FB4B4",
"7. c #1EB4B4",
"8. c #1EB2B2",
"9. c #24ABAB",
"0. c #27A9A9",
"q. c #3DA1A1",
"w. c #32ADAD",
"e. c #32ACBA",
"r. c #20B0B0",
"t. c #20B2B2",
"y. c #22B2B2",
"u. c #22B5B5",
"i. c #22B3B3",
"p. c #29B7B7",
"a. c #2AB6B6",
"s. c #23B9B9",
"d. c #2EB8B8",
"f. c #2EB8B8",
"g. c #2CB5B9",
"h. c #34B7B7",
"j. c #33BABA",
"k. c #37BBBB",
"l. c #33BABA",
"z. c #3ABDBD",
"x. c #3CBCBC",
"c. c #6CBE8B",
"v. c #4BABAB",
"b. c #57AFAF",
"n. c #43BFBF",
"m. c #42BEBE",
"M. c #4EBBBB",
"N. c #46B7B7",
"B. c #5DB5B5",
"V. c #56BBBB",
"C. c #64B8B8",
"Z. c #0BAFC0",
"A. c #45C0C0",
"S. c #49C3C3",
"D. c #4EC8C8",
"F. c #54C3C3",
"G. c #5CC4C4",
"H. c #55CDCD",
"J. c #65C4C4",
"K. c #6CC5C5",
"L. c #64CBCB",
"P. c #6BC8C8",
"I. c #7BCCCC",
"U. c #72C8C8",
"Y. c #6ED0D0",
"T. c #78D3D3",
"R. c #8E8E8E",
"E. c gray63",
"W. c #C9BFBF",
"Q. c #C3BABA",
"!. c #81CDCD",
"~. c #84D4D4",
"^. c #8FD9D9",
"/. c #92D5D5",
"(. c #9CDBDB",
"). c #96D8D8",
"_. c #A1DBDB",
"`. c #A2DBDB",
"'. c #AADFDF",
"]. c #9FE0E0",
"[. c #ACE4E4",
"{. c #A7E0E0",
"}. c #B6E6E6",
"|. c #BEEAEA",
" X c #CBC1C1",
".X c #C1EBEB",
"XX c #DBF5F5",
/* pixels */
"                                                                                                                          & & & ",
"                                                                                                                & & & * 5 3 r 6 ",
"                                                                                                      & & & & * 8 4 i p ^ ( ( 6 ",
"                                                                                              & & & * 6 4 s p ^ ^ ^ i { ( ( ( 6 ",
"                                                                                    & & & & 7 4 y p ^ ^ ^ t ,.{ X.X.< ;.[ ( ( 6 ",
"                                                                            & & & 5 3 y i ^ ^ ^ p / X.9.>.e i s.s.:.i ( p } ( 6 ",
"                                                                  & & & * 3 u i ^ ^ ^ ( e -.-.k.) 1 H.k.s.i ^ ' s e 1 2 e } ( 6 ",
"                                                        = & & * 6 u i p ^ ^ ( i  .-.,.r.1 | D.(.^ i O.e 2 1 2 2 e e t i i | { 6 ",
"                                                      * 4 s i [ ^ ( ^ e -.,.u.i p s.8.;.e i r 1 1 e e e i i p ^ ^ ( ( p t a ( 6 ",
"                                                      0 } [ 2 { ,.u.X.e 8.,.o.e e 1 1 1 e e t i p p ^ ( ( [ } } %.} } i e i ( 6 ",
"                                                      0 9.u.t | ;.] t 2 1 2 2 e t i p p ^ ( [ X.;.9.>.7.s.t.%.%.} } } i e } [ 6 ",
"                                                      0 8.u.e 1 2 e e i p p ^ ( [ { -.:.8.u.n.z.l.z.7.t.t.&.%.%.%.} [ i i %.( 6 ",
"                                                      0 7.8.0.^ ^ ( [ } } } %.%.*.t.8.7.i.k.f.k.z.7.7.8.4.=.%.} } } ( p i %.( 6 ",
"                                                      9 / 9.Y.} %.%.*.%.%.%.%.=.9.r.7.i.p.j.j.p.f.7.8.t.=.&.%.%.} ( ( i i %.[ 6 ",
"                                                      6 i -.`.} %.%.%.%.%.%.:.t.7.7.7.n.z.j.k.n.6.6.t.:.:.%.} } } [ ( p i ,.( 6 ",
"                                                      8 %.:.`.%.%.%.%.%.*.>.8.8.7.z.f.p.j.j.p.u.6.t.2.=.%.} %.} } ( ( i i o.| 6 ",
"                                                      0 t.:.`.%.%.%.%.=.y.,.7.7.6.d.k.k.d.j.n.7.6.5.=.=.%.} } } ( ( ( p t i ( 6 ",
"                                                      f t.:.`.} %.%.:.y.5.7.i.7.x.j.k.x.x.j.6.7.5.r.:.%.%.} } } ( _ _ p e i ( 6 ",
"                                                      f t.:._.%.=.<.5.,.6.6.u.d.j.k.d.u.s.k.6.5.5.5.&.%.%.} } ( ( _ ( i t %.[ 7 ",
"                                                      9 ) a._.&.5.5.r.7.5.s.k.j.f.d.x.S.x.8.7.6.5.>.%.%.} %.} } ( ^ ( p i 5.( 6 ",
"                                                      6 i -.(.8.5.5.6.6.7.j.k.x.m.x.p.u.u.7.i.5.t.%.%.%.} } ( ( ( _ ( i i i.( 6 ",
"                                                      8 } :.(.>.5.6.6.6.x.k.d.u.u.d.x.x.u.5.5.5.=.%.%.} } [ } ( ( ( ( i a 5.[ 6 ",
"                                                      f 9.:.(.>.7.u.5.u.u.f.k.n.n.j.d.j.u.5.5.y.:.%.%.%.} } _ ( _ ( _ i a t.( 6 ",
"                                                      0 8.:.(.4.7.4.j.n.A.x.d.p.f.j.j.d.5.5.r.%.=.%.%.} } [ ( _ ( ( } p i o.{ 6 ",
"                                                      0 t.:._.8.u.m.j.s.a.d.k.j.d.j.x.6.5.5.>.,.%.%.%.[ [ [ ( _ ( ( ( p e i ( 6 ",
"                                                      9 ) g.(.8.s.f.j.k.j.d.k.x.m.k.6.5.5.5.*.%.%.%.[ } [ [ ^ _ ( ( } i e p ( 6 ",
"                                                      6 t -.(.8.j.j.j.x.m.x.d.i.i.j.6.5.5.=.>.%.%.%.} [ [ ( ( _ ( ( ( i i %.( 6 ",
"                                                      8 [ :.(.k.m.x.j.u.7.a.x.F.F.i.5.5.5.,.%.%.%.} [ [ ( ^ ^ ( ( ( } p a %.[ 6 ",
"                                                      0 ,.:._.i.7.p.k.V.W. XW. XQ.C.5.5.y.%.%.%.} } } ( ( _ ( ( ( ( ( p i %.( 6 ",
"                                                      f t.4.(.k.c.~ f. .N K H H E.B.,.y.=.%.%.} %.[ } } ( ^ ^ ( ( } } i i } ( 6 ",
"                                                      f s.4.(.g.P ! 3.t D F F H R.B.,.y.>.%.%.%.[ } ( ( _ ( ( ( ( ( } i i _ ( 6 ",
"                                                      9 { p.`.^ - W g.t D D F H J B.y.%.*.%.%.} } [ } ( _ _ ^ ( _ } } i t / [ 6 ",
"                                                      6 i :.L._ - W 1.t D D B K J b.:.2.%.%.%.[ } ( ( _ _ ( ( ( [ ( } i e t ( 6 ",
"                                                      8 ( M.N.@.- Q 2.y x , U ! F b.=.%.%.%.} } ( [ ( ( _ ^ ^ ( ( } } i e p ( 6 ",
"                                                      h J.).&...- R 2.t = , . E D v.=.%.%.} %.} } ( ( ^ _ ( ( ( [ ( } p e p [ 6 ",
"                                                      C I.{.| ..X R 2.t # : o Q V v.%.%.%.} } ( ( ( ( ( ( _ _ ( ( } } i e [ ( 6 ",
"                                                      Z }.|.%.| X T 2.y + : > I V v.%.%.} } } ( } _ _ ^ _ _ ( ( [ [ } i t [ ( 6 ",
"                                                      Z D.XX%. .- Y 2.s + + + # B q.%.} } } } } ( _ _ _ _ _ ( ( [ } } p t ( [ 6 ",
"                                                      f p [.%.^ w L :.t # # # m V q.%.%.} } ( ( ( _ ( _ _ _ ( [ [ } } i t } ( 6 ",
"                                                      j N.}.&.^ p ;.&.y * m m x B $.%.} } [ } ( ( _ ^ _ _ ( ( [ [ [ } i t ` { 6 ",
"                                                      G {.{.%.p [ u.-.t + x N N D $.} %.} ( ( ( ^ ( ( ( _ ( ( [ [ } } i e t ( 6 ",
"                                                      G (.!.&.} u.i.X.s $ + + @ @ +.%.} [ [ } _ ( ^ ^ ^ ( ( ( [ } } %.p e ^ ( 6 ",
"                                                      A ).U.&.u.6.5.X.^ _ ^ ^ p i %.} } [ ( ( _ ^ ( ( ( _ ( ( [ } } } i e %.[ 6 ",
"                                                      q @.S.A.6.6.5.,.:.;.| } [ %.} } [ } ( ( _ ( ^ ^ ^ ( ( [ [ [ } } p t } ( 6 ",
"                                                      8 t x.T.8.5.,.,.r.%.=.%.%.%.[ } ( ( ( ( _ ^ ^ ( ( ( [ ( } } } %.i i *.( 6 ",
"                                                      8 ^ k.).8.5.5.5.:.5.%.%.%.} } [ } ( ( ^ ^ ^ ( ^ ( ( ( } [ } } } i i %.( 6 ",
"                                                      h g.k.(.>.r.r.:.=.*.&.%.} } [ [ ( ( _ ( ( ( ^ ( ( ( ( ( } [ } %.i i &.[ 6 ",
"                                                      j A.>.(.>.,.r.=.=.:.%.%.%.} ( ( [ ( ( ^ ^ ^ ( ^ ( ( [ } [ } } *.i t ` { 6 ",
"                                                      h 7.4.(.>.5.=.=.5.%.} } [ } [ } ( ( _ ( ( ( ^ ( ( ( [ ( } [ %.%.i e t ( 6 ",
"                                                      9 X.8._.>.%.=.=.*.%.%.} } [ [ _ ( _ ^ _ ^ ^ ^ ( ( ( [ } } } } %.p t ( ( 6 ",
"                                                      6 t 8.(.>.r.:.=.:.%.} } } ( ( ( ( _ _ _ ( ( ^ ( ( ( [ } } [ %.%.i i *.[ 6 ",
"                                                      8 ^ :.).N.:.=.=.%.} } } _ [ ( ( ^ ^ _ _ _ ^ [ ( ( [ ( } [ } } %.i i *.( 6 ",
"                                                      0 =.>..X}.'./.I.J.M.w.X.} _ _ ^ ( ( ^ ^ _ ( ( ( ( ( [ } } } %.%.i i %.[ 6 ",
"                                                      0 t.8.%.9.h.L.^.[.|.}.{./.I.k.,.| ( ( ( ^ ^ ( ( } [ [ [ } %.} %.i p =.( 6 ",
"                                                      h 8.i.i I.5.5.-.} %.| w.J.).(.].G.y.=.*.:.0.;.{ ( ( [ [ [ [ %.%.i i ;.{ 6 ",
"                                                      b +.0.i } 5.t.| a | } } } %.[ _  .@.w.K.(.(.~.Y.H.A.k.y.&.%.} %.^ t / { 6 ",
"                                                        M v M b S #. .p } } } p / ( ^ p t ^ i ( | w.G.!.(.(.^.L.n.p.5.) 2 i ( 6 ",
"                                                                  c v m b l ` i ( ( ^ p < i ^ ( } ) [ [ %.a.h.G.P.K.U.{ p [ ( 6 ",
"                                                                            M M m n g d e p ( [ _ < } } :.( [.4.>.>.5.<.-.:.( 6 ",
"                                                                                    v M m m j l a ^ %.*.4.i ) 5.5.:.^ A.6.y.( 6 ",
"                                                                                              M M m b k #.y ( 7.7.-.t :.5.8.[ 6 ",
"                                                                                                      m v N m C z O.a :.7.7.[ 6 ",
"                                                                                                                c v N m C z d q ",
"                                                                                                                          v v m "
};
