/* XPM */
static char *d43032c75e1944abe00b339e09c7e809P58dxPiArERX542R[] = {
/* columns rows colors chars-per-pixel */
"64 64 146 2 ",
"   c None",
".  c #193E3E",
"X  c #26262C",
"o  c #363737",
"O  c #3A3434",
"+  c #333A3A",
"@  c #3A3838",
"#  c #575300",
"$  c #5F5B00",
"%  c #6D6900",
"&  c #3F3F41",
"*  c #004C4C",
"=  c #1C4242",
"-  c #005555",
";  c #015B5B",
":  c #105151",
">  c #1D5454",
",  c #125D5D",
"<  c #2C4343",
"1  c #254A4A",
"2  c #2E5656",
"3  c #375F5F",
"4  c #016363",
"5  c #096767",
"6  c #006C6C",
"7  c #096C6C",
"8  c #196D6D",
"9  c #007474",
"0  c #0C7676",
"q  c #007C7C",
"w  c #2C7272",
"e  c #277979",
"r  c #414141",
"t  c gray31",
"y  c #564F4F",
"u  c #5A4F4F",
"i  c #465A5A",
"p  c #545353",
"a  c #5A5151",
"s  c #5E5E5E",
"d  c #496565",
"f  c #466C6C",
"g  c #636366",
"h  c gray43",
"j  c #707073",
"k  c #7C7C7C",
"l  c #82820E",
"z  c #8B8A21",
"x  c #85A22E",
"c  c #9FB530",
"v  c #B4AF24",
"b  c #B0C630",
"n  c #B2C830",
"m  c #C3D730",
"M  c #CADA31",
"N  c #CFEA2D",
"B  c #ABA843",
"V  c #AEDE54",
"C  c #008585",
"Z  c #088383",
"A  c #008789",
"S  c #008B8B",
"D  c #168585",
"F  c #128F8F",
"G  c #009494",
"H  c #0D9595",
"J  c #009A9A",
"K  c #0D9B9B",
"L  c #179797",
"P  c #1A9494",
"I  c #378A8A",
"U  c #33A790",
"Y  c #00A3A3",
"T  c #08A7A7",
"R  c #01A9A9",
"E  c #0CACAC",
"W  c #12A3A3",
"Q  c #1CA3A3",
"!  c #14ACAC",
"~  c #1CAEAE",
"^  c #14B2B2",
"/  c #1EB3B3",
"(  c #1DBABA",
")  c #22A7A7",
"_  c #28A0A0",
"`  c #2AADAD",
"'  c #22B3B3",
"]  c #2AB7B7",
"[  c #27B6B9",
"{  c #23B8B8",
"}  c #2EB9B9",
"|  c #37B3B3",
" . c #3CB2B2",
".. c #33BABA",
"X. c #3BBCBC",
"o. c #4CA5A5",
"O. c #41BEBE",
"+. c #40BDBD",
"@. c #45BFBF",
"#. c #44BEBE",
"$. c #4EBABA",
"%. c #57BFBF",
"&. c #3FC2C7",
"*. c #46C0C0",
"=. c #45C4C5",
"-. c #56C7C7",
";. c #53C5C5",
":. c #5AC3C3",
">. c #5AC6C8",
",. c #5BC9C9",
"<. c #63C2C2",
"1. c #6FC5C5",
"2. c #63CACA",
"3. c #63CBCB",
"4. c #6FC9CB",
"5. c #69CFCF",
"6. c #6BCCCC",
"7. c #7ECCCC",
"8. c #75D1D1",
"9. c #75D2D2",
"0. c #79D2D2",
"q. c #79D3D3",
"w. c #7AD2D2",
"e. c #7BD4D4",
"r. c #7CD5D5",
"t. c gray52",
"y. c gray57",
"u. c #89A8A8",
"i. c #80D5D5",
"p. c #84D7D7",
"a. c #85D0D0",
"s. c #8AD2D2",
"d. c #8BD7D7",
"f. c #83D8D8",
"g. c #8EDADA",
"h. c #93DBDD",
"j. c #93DDDD",
"k. c #9BDCDC",
"l. c #A0E1E1",
"z. c #A6E4E4",
"x. c #AEE4E4",
"c. c #A8E8E8",
"v. c #B2E4E4",
"b. c #CEC5C5",
"n. c #D2CBCB",
"m. c #C3F4F4",
/* pixels */
"                                                                                                                              O ",
"                                                                                                                          O + 7 ",
"                                                                                                                      O o , q q ",
"                                                                                                                  O O > 9 W S q ",
"                                                                                                                O 1 9 C G Z A q ",
"                                                                                                            O < 9 C 9 ~ { S S q ",
"                                                                                                        O o 5 C 9 | q { L ; G q ",
"                                                                                                      O , C W ` * ..6 ; ; 6 G q ",
"                                                                                                  O > 9 A W K l.6 - 4 6 q A C q ",
"                                                                                              O < q A 4 ' ~ 9 - 4 9 C S G A 9 q ",
"                                                                                          @ + 9 A 0 ' 9 0 - 4 9 C K ~ Y J A S q ",
"                                                                                          9 9 K ' C 7 ; 6 q S ` [ ' ' Y J A Y q ",
"                                                                                          ( H ~ 5 ; 9 C G ~ { [ X./ Y Y J A Y q ",
"                                                                                          / K 4 9 A J Y ' / ..@./ / ~ J S A Y q ",
"                                                                                          { O.S Y Y Y ! / } ..[ / ' Y Y J A E q ",
"                                                                                          S i.Y Y Y T / [ ] ..X./ T Y J S A J q ",
"                                                                                          q q.Y Y Y ' / ..@.../ / ! J J S A q q ",
"                                                                                          ^ q.Y Y ~ / / O.[ ../ ' T Y J S A 9 q ",
"                                                                                          / q.Y ~ / / } [ ..../ / Y J G A A J q ",
"                                                                                          / 9.Y / / / ....O./ / ~ Y Y G C A E q ",
"                                                                                          C r.' / / X...O.' / / Y Y G G A A E q ",
"                                                                                          A q./ / / O.} [ X./ / Y J J A S A / q ",
"                                                                                          / q./ / X.' ....X./ ' Y J J S S A { q ",
"                                                                                          / q./ } ......X./ / Y Y J G A S A G q ",
"                                                                                          ^ 9./ ] ] *.} [ / ' ! Y G G C S A 9 q ",
"                                                                                          q r.' X.X.] ..../ ! Y Y J S A S A 9 q ",
"                                                                                          J q.] X.../ } / / ' Y J G S C A A R q ",
"                                                                                          { q.O.[ u.b.n. ./ E Y Y G C S S A ^ q ",
"                                                                                          / q.&.V 2 y.t. ./ Y Y G G S C S A R q ",
"                                                                                          T 9.9 N . g k  .~ Y J J G C S G A Y q ",
"                                                                                          9 f.A M . g j  .Y Y J G S A A S A J q ",
"                                                                                          Y s.h.m . l B  .~ Y J S A A A G A q q ",
"                                                                                          5.-.4.n = % v ) Y Y J G S C A G A 9 q ",
"                                                                                          p.2.>.b = $ v  .Y J G S C S S G A 9 q ",
"                                                                                          9.5.=.c = # z Q Y J G G A C S G A q q ",
"                                                                                          E 5.Q x = X & Q J G S A C S S J A C q ",
"                                                                                          d.,.9 U = r s Q Y J G C C C S G A A q ",
"                                                                                          m.;.C ' = h t Q G G S A A A G J A S q ",
"                                                                                          c.@.' ' = O s Q Y G A C C C S J A S q ",
"                                                                                          G 2./ ' C q : F G G S A A S G J A q q ",
"                                                                                          9 j./ ~ / K A Y J G C A C S G J A 9 q ",
"                                                                                          ( g./ / ! Y Y J G S A C A S G J A C q ",
"                                                                                          =.9.~ ' ! Y Y J G S C S A S G G A G q ",
"                                                                                          ( q./ ! E Y J G S S C C S S G G A J q ",
"                                                                                          S 9./ ! T Y J G G C A A A A S J A Y q ",
"                                                                                          q r.~ T ! J G S A C C C S G J G A R q ",
"                                                                                          ^ e.$.T Y J J G S A A C S G J G A J q ",
"                                                                                          / ! x.7.E G G S S A A A S G J J A 9 q ",
"                                                                                          / H / >.v.$.G S C A C C A S J J A 9 q ",
"                                                                                          y e ~ ' Y v.a.K A A A S S J J Y A J q ",
"                                                                                              d ( o.G %.g.! C C S A S J G A R q ",
"                                                                                                y C J A J 1.E J A G G G Y A R q ",
"                                                                                                  u D 4 A 9 _ r.X.S S J J A R q ",
"                                                                                                    p 3 A 9 A H k.2.~ G Y A E q ",
"                                                                                                        p 9 6 A S <.d.^ J G G q ",
"                                                                                                          a 0 G ; G X.k.X.E 9 q ",
"                                                                                                            a w 6 J J ~ :.X.9 q ",
"                                                                                                              p i Y 9 ! ~ ~ Y q ",
"                                                                                                                  p 0 ' ' z./ q ",
"                                                                                                                    a I ( P / q ",
"                                                                                                                      y f G / q ",
"                                                                                                                        p p ) q ",
"                                                                                                                            y 8 ",
"                                                                                                                              a "
};
