/* XPM */
static char *_ce07e705687462184bf17ea6c7090a1fSHfxRYRlDVOKGRx[] = {
/* columns rows colors chars-per-pixel */
"64 64 2 1 ",
"  c white",
". c black",
/* pixels */
"                                                                ",
"                                                                ",
"                                                                ",
"                                                                ",
"                                                                ",
"                                                                ",
"                                                                ",
"                                                                ",
"                                                                ",
"                              ......                            ",
"                      ...............                           ",
"                  ...................                           ",
"                 ...................                            ",
"                 ...............                                ",
"                  ......                                        ",
"                    ....                                        ",
"                    ....                                        ",
"                    ....                                        ",
"                    ....                                        ",
"                    .....        ....                           ",
"                    ..................                          ",
"                     .................                          ",
"                     ................                           ",
"                      .............                             ",
"                          ....                                  ",
"                          .....                                 ",
"                          .....                                 ",
"                           ....                                 ",
"                           ....                                 ",
"                           ....                                 ",
"                           ....  ...........                    ",
"                           ..................                   ",
"                    .........................                   ",
"                 ...........................                    ",
"                ...................                             ",
"                ..............                                  ",
"                 .....                                          ",
"                                                                ",
"                                                                ",
"                            ...                                 ",
"                           .....                                ",
"                          ..........                            ",
"                         ............                           ",
"                         .............                          ",
"                         .... .........                         ",
"                         ....     ......                        ",
"                         ....      .....                        ",
"                         ....       ....                        ",
"                         .....      ....                        ",
"                         .....      ....                        ",
"                          ..............                        ",
"                          ..............                        ",
"                          .............                         ",
"                           ...........                          ",
"                                                                ",
"                                                                ",
"                                                                ",
"                                                                ",
"                                                                ",
"                                                                ",
"                                                                ",
"                                                                ",
"                                                                ",
"                                                                "
};
