/* XPM */
static char *_f1ab957ab35469b9d1a5f2c9c93716fTWqXKwkBPPpvRALX[] = {
/* columns rows colors chars-per-pixel */
"64 64 2 1 ",
"  c white",
". c black",
/* pixels */
"                                                                ",
"                                                                ",
"                                                                ",
"                                                                ",
"                                                                ",
"                                                                ",
"                                                                ",
"                                    ..                          ",
"                                   ....                         ",
"                                   ....                         ",
"                ..                 ....                         ",
"               ....                .....                        ",
"               ....                .....                        ",
"               ....                 ....                        ",
"               ....                 ....                        ",
"               .....               .....                        ",
"               .....         ...........                        ",
"                ....  ..................                        ",
"                ........................                        ",
"                ........................                        ",
"                 .... .........    .....                        ",
"                 .....             .....                        ",
"                 .....             ....                         ",
"                  .....           .....                         ",
"                  .....         .......                         ",
"                   ....        .......                          ",
"                   .....     ........                           ",
"                   .....   .........                            ",
"                    ..............                              ",
"                    .............                               ",
"                     ..........                                 ",
"                      .......                                   ",
"                                                                ",
"                                                                ",
"                                                                ",
"            .................................                   ",
"           ...................................                  ",
"           ...................................                  ",
"            .................................                   ",
"                            ....                                ",
"                            ....                                ",
"                            ....                                ",
"                            ....                                ",
"                           .............                        ",
"                        ...................                     ",
"                       .......................                  ",
"                       ........................                 ",
"                       ......         .........                 ",
"                        ..               ......                 ",
"                                          ....                  ",
"                                          ....                  ",
"                                          ....                  ",
"                                          ....                  ",
"                                          ....                  ",
"                                          ....                  ",
"                                           ..                   ",
"                                                                ",
"                                                                ",
"                                                                ",
"                                                                ",
"                                                                ",
"                                                                ",
"                                                                ",
"                                                                "
};
