/* XPM */
static char *_5047f293211470ce38f59db67da2d077CYeW6Bxl8DHJVY6[] = {
/* columns rows colors chars-per-pixel */
"64 64 2 1 ",
"  c white",
". c black",
/* pixels */
"                                                                ",
"                                                                ",
"                                                                ",
"                                                                ",
"                                                                ",
"                                                                ",
"                                                                ",
"                                                                ",
"                                                                ",
"                                                                ",
"                                                                ",
"                                                                ",
"                                                                ",
"                                  ..                            ",
"                                 ....                           ",
"                                 ....                           ",
"                                 .....                          ",
"               ..                .....                          ",
"              ....                ....                          ",
"              ....                ....                          ",
"              ....                ....                          ",
"              ....                ....                          ",
"              ....                ............                  ",
"              ....                .............                 ",
"              ....                .............                 ",
"              ....                ............                  ",
"              ....                ....                          ",
"              .....          ...  ....                          ",
"              .....         ..... .....                         ",
"               ....         ..... .....                         ",
"               .....        ....   ....                         ",
"               .....    ........   ....                         ",
"                ................   ....                         ",
"                ...............    ....                         ",
"                 .............     ....                         ",
"                  ........   .............                      ",
"                         ..................                     ",
"                      ......................                    ",
"                     .......................                    ",
"                     ..........         ....                    ",
"                    .......             ....                    ",
"                    ......              .....                   ",
"                    ......              .....                   ",
"                    ......               ....                   ",
"                    ......               ....                   ",
"                    ......               ....                   ",
"                    ......          .........                   ",
"                    ......    ...............                   ",
"                    ...... .................                    ",
"                     ......................                     ",
"                    ..................                          ",
"                    ............                                ",
"                     ........                                   ",
"                       ..                                       ",
"                                                                ",
"                                                                ",
"                                                                ",
"                                                                ",
"                                                                ",
"                                                                ",
"                                                                ",
"                                                                ",
"                                                                ",
"                                                                "
};
