/* XPM */
static char *_6d7cceb7fc34648dc780b2a29cf6f6f2Lv7fBDEDncpUPTd[] = {
/* columns rows colors chars-per-pixel */
"64 64 2 1 ",
"  c white",
". c black",
/* pixels */
"                                                                ",
"                                                                ",
"                                                                ",
"                                                                ",
"                                                                ",
"                                                                ",
"                                                                ",
"                                                                ",
"                                                                ",
"                                                                ",
"                                                                ",
"                                                                ",
"                                                                ",
"                          ..              ..                    ",
"                         ....            ....                   ",
"                         ....            ....                   ",
"                        .....            ....                   ",
"                       ......            ....                   ",
"                       .....             ....                   ",
"                      .....              ....                   ",
"                     ......              ....                   ",
"                     .....               ....                   ",
"                    .....     ..         ....                   ",
"                    .....    ................                   ",
"                   .....     ................                   ",
"                   .....     ................                   ",
"                  .....      ................                   ",
"                 ......       ..         ....                   ",
"                 .....                   ....                   ",
"                .......                  ....                   ",
"                ........                 ....                   ",
"               ..........                ....                   ",
"              ............               ....                   ",
"              .....  ......              .....                  ",
"             .....    .....              .....                  ",
"             .....     .....              ....                  ",
"            .....      ......             ....                  ",
"           ......       ......            ....                  ",
"           .....         .....            ....                  ",
"            ...           .....           .....                 ",
"                          .....           .....                 ",
"                           .....           ....                 ",
"                           .....           ....                 ",
"                            ....           ....                 ",
"                             ..            ....                 ",
"                                           ....                 ",
"                                           ....                 ",
"                                            ..                  ",
"                                                                ",
"                                                                ",
"                                                                ",
"                                                                ",
"                                                                ",
"                                                                ",
"                                                                ",
"                                                                ",
"                                                                ",
"                                                                ",
"                                                                ",
"                                                                ",
"                                                                ",
"                                                                ",
"                                                                ",
"                                                                "
};
